<?xml version="1.0" encoding="UTF-8" standalone="no"?>
<!DOCTYPE svg PUBLIC "-//W3C//DTD SVG 1.1//EN" "http://www.w3.org/Graphics/SVG/1.1/DTD/svg11.dtd">
<svg width="100%" height="100%" viewBox="0 0 12529 2981" version="1.1" xmlns="http://www.w3.org/2000/svg" xmlns:xlink="http://www.w3.org/1999/xlink" xml:space="preserve" style="fill-rule:evenodd;clip-rule:evenodd;stroke-linejoin:round;stroke-miterlimit:1.41421;">
    <g id="Prancheta1" transform="matrix(9.88862,0,0,5.40125,144.632,3.87576)">
        <rect x="-14.626" y="-0.718" width="1266.99" height="551.887" style="fill:none;"/>
        <g id="g3055" transform="matrix(0.101126,0,0,0.185142,-0.498768,53.753)">
            <g transform="matrix(1.2585,-0.000751245,0.000754138,1.26334,5862.49,100.872)">
                <text x="-4721.53px" y="1649.58px" style="font-family:'STHeitiSC-Medium', 'Heiti SC';font-size:2212.76px;">Celtapps</text>
            </g>
            <g id="g3079" transform="matrix(0.726307,0.68737,-0.68737,0.726307,993.762,503.717)">
                <path id="path3081" d="M645,231C652,227 660,229 664,236C668,243 666,251 659,255C652,259 644,257 640,250C636,243 638,235 645,231Z" style="fill:rgb(0,175,239);"/>
                <path id="path3083" d="M699,193C708,188 719,191 724,199C729,208 726,219 718,224C709,229 698,226 693,218C688,209 691,198 699,193Z" style="fill:rgb(0,175,239);"/>
                <path id="path3085" d="M761,151C772,145 786,148 793,159C799,170 796,184 785,191C774,197 760,194 753,183C747,172 750,158 761,151Z" style="fill:rgb(0,175,239);"/>
                <path id="path3087" d="M831,105C844,97 861,102 869,115C877,128 872,145 859,153C846,161 829,156 821,143C813,130 818,113 831,105Z" style="fill:rgb(0,175,239);"/>
                <path id="path3089" d="M909,53C924,44 944,49 953,64C962,79 957,99 942,108C927,117 907,112 898,97C889,82 894,62 909,53Z" style="fill:rgb(0,175,239);"/>
                <path id="path3091" d="M998,5C1016,-5 1038,0 1049,18C1059,36 1054,58 1036,69C1018,79 996,74 985,56C975,38 980,16 998,5Z" style="fill:rgb(0,175,239);"/>
                <path id="path3093" d="M1104,14C1122,4 1144,9 1155,27C1165,45 1160,67 1142,78C1124,88 1102,83 1091,65C1081,47 1086,25 1104,14Z" style="fill:rgb(0,175,239);"/>
                <path id="path3095" d="M1183,86C1201,76 1223,81 1234,99C1244,117 1239,139 1221,150C1203,160 1181,155 1170,137C1160,119 1165,97 1183,86Z" style="fill:rgb(0,175,239);"/>
                <path id="path3097" d="M577,247C584,243 592,245 596,252C600,259 598,267 591,271C584,275 576,273 572,266C568,259 570,251 577,247Z" style="fill:rgb(0,175,239);"/>
                <path id="path3099" d="M515,228C522,224 530,226 534,233C538,240 536,248 529,252C522,256 514,254 510,247C506,240 508,232 515,228Z" style="fill:rgb(0,175,239);"/>
            </g>
            <g id="g3057" transform="matrix(-0.956648,0.291248,-0.291248,-0.956648,1192.96,1262.71)">
                <path id="path3059" d="M137,231C144,227 152,229 156,236C160,243 158,251 151,255C144,259 136,257 132,250C128,243 130,235 137,231Z" style="fill:rgb(0,168,89);"/>
                <path id="path3061" d="M192,193C201,188 212,191 217,199C222,208 219,219 211,224C202,229 191,226 186,218C181,209 184,198 192,193Z" style="fill:rgb(0,168,89);"/>
                <path id="path3063" d="M254,151C265,145 279,148 286,159C292,170 289,184 278,191C267,197 253,194 246,183C240,172 243,158 254,151Z" style="fill:rgb(0,168,89);"/>
                <path id="path3065" d="M323,105C336,97 353,102 361,115C369,128 364,145 351,153C338,161 321,156 313,143C305,130 310,113 323,105Z" style="fill:rgb(0,168,89);"/>
                <path id="path3067" d="M402,53C417,44 437,49 446,64C455,79 450,99 435,108C420,117 400,112 391,97C382,82 387,62 402,53Z" style="fill:rgb(0,168,89);"/>
                <path id="path3069" d="M490,5C508,-5 530,0 541,18C551,36 546,58 528,69C510,79 488,74 477,56C467,38 472,16 490,5Z" style="fill:rgb(0,168,89);"/>
                <path id="path3071" d="M596,14C614,4 636,9 647,27C657,45 652,67 634,78C616,88 594,83 583,65C573,47 578,25 596,14Z" style="fill:rgb(0,168,89);"/>
                <path id="path3073" d="M675,86C693,76 715,81 726,99C736,117 731,139 713,150C695,160 673,155 662,137C652,119 657,97 675,86Z" style="fill:rgb(0,168,89);"/>
                <path id="path3075" d="M69,247C76,243 84,245 88,252C92,259 90,267 83,271C76,275 68,273 64,266C60,259 62,251 69,247Z" style="fill:rgb(0,168,89);"/>
                <path id="path3077" d="M7,228C14,224 22,226 26,233C30,240 28,248 21,252C14,256 6,254 2,247C-2,240 0,232 7,228Z" style="fill:rgb(0,168,89);"/>
            </g>
            <g id="g30791" transform="matrix(0.248848,-0.968543,0.968543,0.248848,795.259,1396.72)">
                <path id="path30811" d="M645,231C652,227 660,229 664,236C668,243 666,251 659,255C652,259 644,257 640,250C636,243 638,235 645,231Z" style="fill:rgb(131,29,28);"/>
                <path id="path30831" d="M699,193C708,188 719,191 724,199C729,208 726,219 718,224C709,229 698,226 693,218C688,209 691,198 699,193Z" style="fill:rgb(131,29,28);"/>
                <path id="path30851" d="M761,151C772,145 786,148 793,159C799,170 796,184 785,191C774,197 760,194 753,183C747,172 750,158 761,151Z" style="fill:rgb(131,29,28);"/>
                <path id="path30871" d="M831,105C844,97 861,102 869,115C877,128 872,145 859,153C846,161 829,156 821,143C813,130 818,113 831,105Z" style="fill:rgb(131,29,28);"/>
                <path id="path30891" d="M909,53C924,44 944,49 953,64C962,79 957,99 942,108C927,117 907,112 898,97C889,82 894,62 909,53Z" style="fill:rgb(131,29,28);"/>
                <path id="path30911" d="M998,5C1016,-5 1038,0 1049,18C1059,36 1054,58 1036,69C1018,79 996,74 985,56C975,38 980,16 998,5Z" style="fill:rgb(131,29,28);"/>
                <path id="path30931" d="M1104,14C1122,4 1144,9 1155,27C1165,45 1160,67 1142,78C1124,88 1102,83 1091,65C1081,47 1086,25 1104,14Z" style="fill:rgb(131,29,28);"/>
                <path id="path30951" d="M1183,86C1201,76 1223,81 1234,99C1244,117 1239,139 1221,150C1203,160 1181,155 1170,137C1160,119 1165,97 1183,86Z" style="fill:rgb(131,29,28);"/>
                <path id="path30971" d="M577,247C584,243 592,245 596,252C600,259 598,267 591,271C584,275 576,273 572,266C568,259 570,251 577,247Z" style="fill:rgb(131,29,28);"/>
                <path id="path30991" d="M515,228C522,224 530,226 534,233C538,240 536,248 529,252C522,256 514,254 510,247C506,240 508,232 515,228Z" style="fill:rgb(131,29,28);"/>
            </g>
        </g>
    </g>
</svg>
