<?xml version="1.0" standalone="no"?>
<!DOCTYPE svg PUBLIC "-//W3C//DTD SVG 20010904//EN"
 "http://www.w3.org/TR/2001/REC-SVG-20010904/DTD/svg10.dtd">
<svg version="1.0" xmlns="http://www.w3.org/2000/svg"
 width="310.000000pt" height="310.000000pt" viewBox="0 0 310.000000 310.000000"
 preserveAspectRatio="xMidYMid meet">
<metadata>
Created by potrace 1.11, written by Peter Selinger 2001-2013
</metadata>
<g transform="translate(0.000000,310.000000) scale(0.100000,-0.100000)"
fill="#000000" stroke="none">
<path d="M1366 3044 c-511 -80 -933 -387 -1142 -829 -100 -211 -136 -371 -139
-621 -3 -183 7 -283 42 -429 93 -393 364 -742 724 -934 141 -75 334 -141 462
-157 23 -3 53 -8 67 -11 41 -9 411 -12 465 -3 28 4 73 11 100 14 216 29 468
137 663 284 86 65 282 263 282 285 0 5 -220 174 -247 190 -7 5 -49 -29 -106
-86 -183 -182 -425 -319 -622 -352 -22 -3 -62 -10 -90 -15 -78 -13 -340 -4
-435 14 -294 58 -536 202 -715 426 -95 119 -174 273 -200 389 -2 9 -12 50 -21
91 -18 81 -25 312 -12 413 40 313 221 605 498 801 96 68 146 95 245 134 158
62 251 77 460 76 377 -1 659 -132 943 -438 l43 -46 102 77 c128 98 147 114
147 126 0 18 -112 147 -194 223 -96 90 -239 187 -356 242 -82 38 -237 93 -310
108 -19 4 -37 8 -40 9 -10 2 -86 16 -120 21 -81 13 -407 12 -494 -2z"/>
<path d="M1646 2622 c-28 -45 2 -100 48 -88 61 15 49 96 -14 96 -16 0 -31 -4
-34 -8z"/>
<path d="M1522 2538 c-7 -7 -12 -24 -12 -38 0 -14 5 -31 12 -38 28 -28 88 -2
88 38 0 40 -60 66 -88 38z"/>
<path d="M1476 2394 c-19 -18 -21 -55 -4 -72 31 -31 88 -4 88 42 0 20 -28 46
-50 46 -10 0 -26 -7 -34 -16z"/>
<path d="M1505 2247 c-19 -28 -19 -33 4 -56 25 -25 59 -17 67 15 12 47 -45 79
-71 41z"/>
<path d="M1540 2111 c-8 -17 -7 -24 10 -41 28 -28 63 -11 58 28 -4 35 -51 44
-68 13z"/>
<path d="M1577 1991 c-6 -22 10 -41 34 -41 19 0 31 23 23 45 -9 22 -51 19 -57
-4z"/>
<path d="M1614 1889 c-3 -6 0 -17 8 -25 13 -13 16 -13 27 0 7 8 10 20 6 26 -8
13 -32 13 -41 -1z"/>
<path d="M1646 1802 c-2 -4 -1 -14 4 -22 7 -11 12 -12 21 -3 6 6 8 16 5 22 -8
13 -23 14 -30 3z"/>
<path d="M1643 1695 c0 -17 24 -28 32 -15 4 6 3 15 0 20 -9 15 -32 12 -32 -5z"/>
<path d="M1597 1624 c-9 -10 2 -24 19 -24 8 0 14 7 14 15 0 15 -21 21 -33 9z"/>
<path d="M1436 1501 c-7 -11 18 -33 27 -24 4 3 7 12 7 20 0 15 -26 18 -34 4z"/>
<path d="M1532 1494 c4 -21 22 -23 26 -1 2 10 -3 17 -13 17 -10 0 -15 -6 -13
-16z"/>
<path d="M1667 1504 c-9 -10 2 -24 19 -24 8 0 14 7 14 15 0 15 -21 21 -33 9z"/>
<path d="M1350 1446 c0 -10 9 -16 21 -16 24 0 21 23 -4 28 -10 2 -17 -3 -17
-12z"/>
<path d="M1710 1417 c0 -21 12 -28 27 -16 19 16 16 29 -7 29 -11 0 -20 -6 -20
-13z"/>
<path d="M1287 1387 c-3 -8 -2 -20 3 -27 11 -18 42 -4 38 17 -4 22 -34 29 -41
10z"/>
<path d="M1801 1376 c-12 -14 -5 -26 16 -26 15 0 18 26 4 34 -5 3 -14 0 -20
-8z"/>
<path d="M1883 1354 c-5 -14 11 -33 28 -34 10 0 20 31 13 41 -9 15 -34 10 -41
-7z"/>
<path d="M1977 1331 c-5 -21 9 -41 29 -41 18 0 35 26 28 44 -9 23 -50 21 -57
-3z"/>
<path d="M2108 1333 c-29 -7 -34 -44 -8 -65 21 -17 24 -17 41 -2 11 10 19 22
19 29 0 18 -33 42 -52 38z"/>
<path d="M1213 1319 c-18 -18 -3 -49 22 -49 25 0 34 15 27 43 -5 19 -32 23
-49 6z"/>
<path d="M2212 1293 c-11 -21 0 -58 20 -65 7 -3 23 -2 36 3 22 8 28 32 16 63
-8 22 -61 21 -72 -1z"/>
<path d="M2363 1269 c-42 -15 -38 -80 7 -94 33 -10 60 12 60 49 0 38 -30 59
-67 45z"/>
<path d="M1133 1243 c-20 -8 -15 -51 7 -63 15 -8 24 -6 40 10 34 34 0 73 -47
53z"/>
<path d="M2451 1149 c-26 -25 -27 -51 -1 -74 40 -36 101 7 77 55 -18 34 -50
43 -76 19z"/>
<path d="M1037 1142 c-34 -37 19 -94 58 -62 21 18 19 57 -4 70 -27 14 -35 13
-54 -8z"/>
<path d="M651 1088 c-25 -22 -27 -51 -5 -72 18 -19 24 -19 57 -7 30 12 39 43
21 69 -20 29 -49 33 -73 10z"/>
<path d="M926 1051 c-25 -27 -14 -69 19 -77 50 -12 83 24 62 67 -16 31 -57 37
-81 10z"/>
<path d="M780 1020 c-14 -14 -17 -25 -11 -42 19 -53 82 -54 95 -2 6 23 3 32
-14 46 -29 23 -45 23 -70 -2z"/>
<path d="M2473 1007 c-28 -12 -35 -31 -23 -61 12 -31 26 -39 56 -32 26 7 44
39 37 67 -7 24 -43 38 -70 26z"/>
</g>
</svg>
